<svg width="216" height="19" viewBox="0 0 216 19" fill="none" xmlns="http://www.w3.org/2000/svg">
<path d="M3.6875 7.5625H11.5V3.90625H3.6875V7.5625ZM0.5625 18V0.78125H11.4688C13.5208 0.854167 14.5729 1.89062 14.625 3.89062V6.51562C14.5833 7.69271 14 8.56771 12.875 9.14062C14 9.71354 14.5833 10.5833 14.625 11.75V14.875C14.5729 16.8542 13.5469 17.8958 11.5469 18H0.5625ZM11.5 14.875V10.6875H3.6875V14.875H11.5ZM20.875 0.78125V7.875H28.6875V0.78125H31.8125V18H28.6875V11H20.875V18H17.75V0.78125H20.875ZM45.875 10.125V3.9375H38.0625V10.125H45.875ZM38.0625 13.25V18H34.9375V3.9375C35.0104 1.92708 36.0469 0.885417 38.0469 0.8125H45.875C47.8854 0.864583 48.9271 1.91146 49 3.95312V18H45.875V13.25H38.0625ZM52.125 0.78125H63.0469C65.0573 0.885417 66.1042 1.92188 66.1875 3.89062V14.875C66.1354 16.8854 65.0938 17.9271 63.0625 18H52.125V0.78125ZM63.0625 3.90625H55.25V14.875H63.0625V3.90625ZM80.25 10.1875V3.90625H72.4375V10.1875H80.25ZM72.4375 13.3125V18H69.3125V0.78125H80.2188C82.2292 0.875 83.2812 1.92708 83.375 3.9375V10.1562C83.2812 12.1354 82.2396 13.1875 80.25 13.3125L83.4062 18H79.9688L76.8125 13.3125H72.4375ZM97.4375 10.125V3.9375H89.625V10.125H97.4375ZM89.625 13.25V18H86.5V3.9375C86.5729 1.92708 87.6094 0.885417 89.6094 0.8125H97.4375C99.4479 0.864583 100.49 1.91146 100.562 3.95312V18H97.4375V13.25H89.625ZM114.625 10.1875V3.90625H106.812V10.1875H114.625ZM106.812 13.3125V18H103.688V0.78125H114.625C116.646 0.864583 117.688 1.91146 117.75 3.92188V10.2031C117.667 12.1927 116.625 13.2292 114.625 13.3125H106.812ZM131.812 14.875V0.78125H134.938V14.8438C134.885 16.8542 133.812 17.9062 131.719 18H124.031C122.01 17.8958 120.958 16.849 120.875 14.8594V0.78125H124V14.875H131.812ZM149 10.1875V3.90625H141.188V10.1875H149ZM141.188 13.3125V18H138.062V0.78125H148.969C150.979 0.875 152.031 1.92708 152.125 3.9375V10.1562C152.031 12.1354 150.99 13.1875 149 13.3125L152.156 18H148.719L145.562 13.3125H141.188ZM155.953 15.3906L157.234 14.0781C157.391 13.9323 157.542 13.8594 157.688 13.8594C157.823 13.8594 157.984 13.9427 158.172 14.1094L159.422 15.4531C159.547 15.6198 159.609 15.7708 159.609 15.9062C159.609 16.0625 159.536 16.224 159.391 16.3906L158.141 17.7656C157.932 17.974 157.781 18.0781 157.688 18.0781C157.521 18.0781 157.37 18.0052 157.234 17.8594L155.859 16.2812C155.755 16.1458 155.703 16.0104 155.703 15.875C155.703 15.7188 155.786 15.5573 155.953 15.3906ZM163.969 3.82812C164.062 1.85938 165.109 0.84375 167.109 0.78125H174.906C176.938 0.84375 177.979 1.88542 178.031 3.90625V6.20312H174.906V3.89062H167.094V14.875H174.906V11.75H178.031V14.8906C177.979 16.8594 176.932 17.8958 174.891 18H167.094C165.104 17.9375 164.062 16.8958 163.969 14.875V3.82812ZM192.156 14.875V3.90625H184.344V14.875H192.156ZM181.219 3.89062C181.302 1.89062 182.344 0.854167 184.344 0.78125H192.141C194.12 0.854167 195.167 1.89062 195.281 3.89062V14.875C195.229 16.8958 194.188 17.9375 192.156 18H184.344C182.302 17.9375 181.26 16.8958 181.219 14.875V3.89062ZM201.625 18H198.422L201.062 0.8125H204.266L206.953 11.4062L209.609 0.8125H212.812L215.578 18H212.375L210.891 8.625L208.562 18H205.359L203.062 8.90625L201.625 18Z" fill="#055D59"/>
</svg>
