<svg width="66" height="66" viewBox="0 0 66 66" fill="none" xmlns="http://www.w3.org/2000/svg">
<circle cx="33" cy="33" r="33" fill="#D9D9D9"/>
<rect x="23.3004" y="6" width="18.7387" height="5.03267" fill="#055D59"/>
<path d="M47.7677 33.3584C45.0265 29.1182 42.1996 17.9214 41.1288 12.853H24.4247C24.2105 18.2497 20.0523 28.7719 18 33.3584C30.9029 47.3857 30.1814 55.7683 30.9488 61.2293C32.1955 61.4511 34.8571 61.3578 34.8571 61.2293C34.1611 45.5424 47.7141 33.3584 47.7677 33.3584Z" fill="#055D59"/>
<rect x="32.0272" y="33.7332" width="1.71325" height="27.6261" fill="white"/>
<path d="M34.8147 25.9624L36.0248 27.8725H33.3911V35.3823C33.5255 36.2049 34.1227 36.7427 35.1825 36.9958L34.8266 37.85C32.6278 37.3912 31.4375 36.5726 31.2556 35.3942V33.1044H28.1235V34.5993C27.5778 35.8569 26.6168 35.7026 25.2406 34.1366C23.8644 32.5706 23.8446 31.57 25.1813 31.135H25.988V27.8725H24.0898L22.8797 25.9624H26.6287L28.1235 27.8606V31.1469H31.2556V27.8725H30.2116L28.9777 25.9624H34.8147Z" fill="white"/>
<path d="M30.7621 25.9624L29.552 27.8725H32.1857V35.3823C32.0513 36.2049 31.4541 36.7427 30.3943 36.9958L30.7502 37.85C32.949 37.3912 34.1393 36.5726 34.3212 35.3942V33.1044H37.4533V34.5993C37.999 35.8569 38.96 35.7026 40.3362 34.1366C41.7124 32.5706 41.7322 31.57 40.3955 31.135H39.5888V27.8725H41.487L42.6971 25.9624H38.9481L37.4533 27.8606V31.1469H34.3212V27.8725H35.3653L36.5991 25.9624H30.7621Z" fill="white"/>
<circle cx="32.8609" cy="63.4474" r="1.55263" fill="#055D59"/>
</svg>
