<svg width="66" height="66" viewBox="0 0 66 66" fill="none" xmlns="http://www.w3.org/2000/svg">
<circle cx="33" cy="33" r="33" fill="#D9D9D9"/>
<rect x="23.3004" y="6" width="18.7387" height="5.03267" fill="#055D59"/>
<path d="M47.7677 33.3584C45.0265 29.1181 42.1996 17.9214 41.1289 12.853H24.4247C24.2105 18.2497 20.0523 28.7719 18 33.3584C30.9029 47.3857 30.1814 55.7683 30.9488 61.2293C32.1955 61.4511 34.8571 61.3578 34.8571 61.2293C34.1611 45.5424 47.7142 33.3584 47.7677 33.3584Z" fill="#055D59"/>
<rect x="32.0272" y="33.7332" width="1.71325" height="27.6261" fill="white"/>
<circle cx="32.8609" cy="63.4474" r="1.55263" fill="#055D59"/>
<path d="M27.1137 33.3209C27.1583 33.3408 27.2614 33.3831 27.423 33.4478C27.5846 33.5075 27.8048 33.5647 28.0834 33.6194C28.3621 33.6741 28.6658 33.7015 28.9946 33.7015C29.6801 33.7015 30.2875 33.5572 30.817 33.2687C31.352 32.9801 31.6195 32.5796 31.6195 32.0672C31.6195 31.7388 31.5052 31.4652 31.2767 31.2463C31.0482 31.0224 30.764 30.8408 30.4241 30.7015C30.0897 30.5622 29.6271 30.3955 29.0364 30.2015C28.2617 29.9577 27.6348 29.7289 27.1555 29.5149C26.6818 29.301 26.275 28.9925 25.935 28.5896C25.6007 28.1866 25.4335 27.6692 25.4335 27.0373C25.4335 26.0274 25.818 25.2687 26.5871 24.7612C27.3617 24.2537 28.3314 24 29.4962 24C29.9754 24 30.4826 24.0473 31.0176 24.1418C31.5526 24.2313 32.0096 24.3259 32.3885 24.4254C32.7675 24.5199 33.0071 24.5821 33.1074 24.6119L33.0238 27.209H31.912L31.3269 25.5746C31.2823 25.5647 31.1736 25.5373 31.0009 25.4925C30.8281 25.4428 30.6052 25.398 30.3321 25.3582C30.059 25.3184 29.786 25.2985 29.5129 25.2985C28.7828 25.2985 28.2199 25.4453 27.8243 25.7388C27.4286 26.0274 27.2307 26.3756 27.2307 26.7836C27.2307 27.1119 27.345 27.3881 27.5735 27.6119C27.802 27.8308 28.0862 28.0124 28.4261 28.1567C28.7717 28.301 29.2537 28.4701 29.8723 28.6642C30.6135 28.898 31.221 29.1194 31.6947 29.3284C32.1684 29.5373 32.5697 29.8333 32.8985 30.2164C33.2328 30.5945 33.4 31.0746 33.4 31.6567C33.4 32.3881 33.1994 33.0075 32.7981 33.5149C32.3969 34.0174 31.8563 34.3905 31.1764 34.6343C30.5021 34.8781 29.7525 35 28.9277 35C28.3927 35 27.8661 34.9552 27.3478 34.8657C26.8295 34.7761 26.3976 34.6841 26.0521 34.5896C25.7121 34.4901 25.4948 34.4254 25.4 34.3955V31.7164H26.771L27.1137 33.3209Z" fill="white"/>
<path d="M38.6863 33.3209C38.6418 33.3408 38.5387 33.3831 38.377 33.4478C38.2154 33.5075 37.9953 33.5647 37.7166 33.6194C37.438 33.6741 37.1343 33.7015 36.8055 33.7015C36.12 33.7015 35.5125 33.5572 34.9831 33.2687C34.4481 32.9801 34.1806 32.5796 34.1806 32.0672C34.1806 31.7388 34.2948 31.4652 34.5233 31.2463C34.7518 31.0224 35.036 30.8408 35.376 30.7015C35.7104 30.5622 36.1729 30.3955 36.7637 30.2015C37.5383 29.9577 38.1653 29.7289 38.6445 29.5149C39.1182 29.301 39.5251 28.9925 39.865 28.5896C40.1994 28.1866 40.3666 27.6692 40.3666 27.0373C40.3666 26.0274 39.9821 25.2687 39.213 24.7612C38.4383 24.2537 37.4686 24 36.3039 24C35.8246 24 35.3175 24.0473 34.7825 24.1418C34.2475 24.2313 33.7905 24.3259 33.4115 24.4254C33.0326 24.5199 32.7929 24.5821 32.6926 24.6119L32.7762 27.209H33.888L34.4732 25.5746C34.5178 25.5647 34.6264 25.5373 34.7992 25.4925C34.972 25.4428 35.1949 25.398 35.4679 25.3582C35.741 25.3184 36.0141 25.2985 36.2872 25.2985C37.0172 25.2985 37.5801 25.4453 37.9758 25.7388C38.3715 26.0274 38.5693 26.3756 38.5693 26.7836C38.5693 27.1119 38.4551 27.3881 38.2266 27.6119C37.9981 27.8308 37.7139 28.0124 37.3739 28.1567C37.0284 28.301 36.5463 28.4701 35.9277 28.6642C35.1865 28.898 34.5791 29.1194 34.1054 29.3284C33.6317 29.5373 33.2304 29.8333 32.9016 30.2164C32.5672 30.5945 32.4 31.0746 32.4 31.6567C32.4 32.3881 32.6007 33.0075 33.0019 33.5149C33.4032 34.0174 33.9437 34.3905 34.6236 34.6343C35.298 34.8781 36.0475 35 36.8723 35C37.4073 35 37.934 34.9552 38.4523 34.8657C38.9706 34.7761 39.4025 34.6841 39.748 34.5896C40.0879 34.4901 40.3053 34.4254 40.4 34.3955V31.7164H39.0291L38.6863 33.3209Z" fill="white"/>
</svg>
