<svg width="225" height="21" viewBox="0 0 225 21" fill="none" xmlns="http://www.w3.org/2000/svg">
<path d="M16.1387 0.0146484V3.82324H4.71289V8.66016H14.2344C16.6592 8.77441 17.9287 10.0312 18.043 12.4307V17.1343C17.9287 19.5718 16.6465 20.8604 14.1963 21H0.904297V17.1914H14.2344V12.4688H4.71289C2.27539 12.291 1.00586 11.0151 0.904297 8.64111V3.8042C1.00586 1.39209 2.27539 0.128906 4.71289 0.0146484H16.1387ZM35.1816 17.1914V0.0146484H38.9902V17.1533C38.9268 19.6035 37.6191 20.8857 35.0674 21H25.6982C23.2354 20.873 21.9531 19.5972 21.8516 17.1724V0.0146484H25.6602V17.1914H35.1816ZM42.7988 21V0.0146484H46.5884L56.1289 14.2969V0.0146484H59.9375V21H56.1099L46.6074 6.60352V21H42.7988ZM78.9805 0.0146484V3.82324H67.5547V8.66016H77.0762C79.501 8.77441 80.7705 10.0312 80.8848 12.4307V17.1343C80.7705 19.5718 79.4883 20.8604 77.0381 21H63.7461V17.1914H77.0762V12.4688H67.5547C65.1172 12.291 63.8477 11.0151 63.7461 8.64111V3.8042C63.8477 1.39209 65.1172 0.128906 67.5547 0.0146484H78.9805ZM98.0234 11.4023V3.86133H88.502V11.4023H98.0234ZM88.502 15.2109V21H84.6934V3.86133C84.7822 1.41113 86.0454 0.141602 88.4829 0.0527344H98.0234C100.474 0.116211 101.743 1.39209 101.832 3.88037V21H98.0234V15.2109H88.502ZM118.971 11.4785V3.82324H109.449V11.4785H118.971ZM109.449 15.2871V21H105.641V0.0146484H118.933C121.383 0.128906 122.665 1.41113 122.779 3.86133V11.4404C122.665 13.8525 121.396 15.1348 118.971 15.2871L122.817 21H118.628L114.781 15.2871H109.449ZM126.588 0.0908203H130.396V21H126.588V0.0908203ZM134.205 0.0146484H151.344V3.82324H144.679V21H140.87V3.82324H134.205V0.0146484ZM155.152 0.0908203H158.961V21H155.152V0.0908203ZM166.692 21H162.789L166.007 0.0527344H169.911L173.186 12.9639L176.423 0.0527344H180.327L183.698 21H179.794L177.985 9.57422L175.147 21H171.244L168.444 9.91699L166.692 21ZM187.525 0.0146484H203.674V3.82324H191.334V8.73633H199.865V12.4688H191.334V17.1914H203.674V21H187.525V0.0146484ZM222.869 0.0146484V3.82324H211.443V8.66016H220.965C223.39 8.77441 224.659 10.0312 224.773 12.4307V17.1343C224.659 19.5718 223.377 20.8604 220.927 21H207.635V17.1914H220.965V12.4688H211.443C209.006 12.291 207.736 11.0151 207.635 8.64111V3.8042C207.736 1.39209 209.006 0.128906 211.443 0.0146484H222.869Z" fill="#055D59"/>
</svg>
